<svg version="1.1" preserveAspectRatio="xMidYMid meet" xmlns="http://www.w3.org/2000/svg" xmlns:xlink="http://www.w3.org/1999/xlink" viewBox="-166.667 0.000 1333.333 1000.000" style="cursor: pointer;"  >
<defs><g transform="matrix(3.956, 0.000, 0.000, 3.956, 300.224, 298.960)" fill="#fff" stroke="none" stroke-width="1" id="def-5f165fcb-359c-45ab-8b14-e54b528315b7"><g transform="translate(0.500, -16.500)"><path fill-rule="evenodd" clip-rule="evenodd" d=" M0,17 v63 h100 V17 H0 z M91,70 H9 V39 h82 V70 z"></path><path fill-rule="evenodd" clip-rule="evenodd" d=" M59.375,53.643 v3.125 H81.25 v-3.125 H59.375 z"></path><path fill-rule="evenodd" clip-rule="evenodd" d=" M21.875,66.143 v-4.861 l4.688 -6.076 l-4.688 -6.076 v-4.861 L30,55.205 L21.875,66.143 z"></path></g></g><path d="M59.690,696.225 L59.690,696.225 L59.690,643.351 Q59.690,641.771,60.812,640.607 Q61.934,639.443,63.680,639.443 L63.680,639.443 L80.889,639.443 Q101.341,639.443,101.341,657.234 L101.341,657.234 Q101.341,670.204,91.281,674.111 L91.281,674.111 L101.424,692.484 Q101.840,693.066,101.840,693.980 L101.840,693.980 Q101.840,696.391,99.221,698.553 Q96.602,700.714,93.692,700.714 Q90.782,700.714,89.535,698.303 L89.535,698.303 L78.146,676.189 L72.659,676.189 L72.659,696.225 Q72.659,698.137,70.747,699.176 Q68.835,700.216,66.174,700.216 Q63.514,700.216,61.602,699.176 Q59.690,698.137,59.690,696.225 Z M72.659,650.750 L72.659,666.213 L80.889,666.213 Q84.547,666.213,86.459,664.426 Q88.371,662.638,88.371,658.481 Q88.371,654.325,86.459,652.537 Q84.547,650.750,80.889,650.750 L80.889,650.750 L72.659,650.750 Z M115.723,696.225 L115.723,696.225 L115.723,643.434 Q115.723,641.522,117.386,640.482 Q119.049,639.443,121.376,639.443 L121.376,639.443 L150.973,639.443 Q152.885,639.443,153.883,641.106 Q154.880,642.769,154.880,645.013 L154.880,645.013 Q154.880,647.424,153.841,649.087 Q152.802,650.750,150.973,650.750 L150.973,650.750 L128.692,650.750 L128.692,664.800 L141.163,664.800 Q142.992,664.800,144.031,666.296 Q145.070,667.793,145.070,669.871 L145.070,669.871 Q145.070,671.783,144.073,673.280 Q143.075,674.776,141.163,674.776 L141.163,674.776 L128.692,674.776 L128.692,688.909 L150.973,688.909 Q152.802,688.909,153.841,690.572 Q154.880,692.235,154.880,694.645 L154.880,694.645 Q154.880,696.890,153.883,698.553 Q152.885,700.216,150.973,700.216 L150.973,700.216 L121.376,700.216 Q119.049,700.216,117.386,699.176 Q115.723,698.137,115.723,696.225 Z M163.859,694.895 L163.859,694.895 Q163.859,694.645,164.025,693.980 L164.025,693.980 L179.488,643.268 Q180.153,641.189,182.523,640.067 Q184.892,638.944,187.968,638.944 Q191.044,638.944,193.414,640.067 Q195.783,641.189,196.448,643.268 L196.448,643.268 L211.994,693.980 Q212.161,694.645,212.161,694.895 L212.161,694.895 Q212.161,697.056,209.459,698.636 Q206.757,700.216,203.847,700.216 L203.847,700.216 Q200.272,700.216,199.607,697.805 L199.607,697.805 L196.781,687.413 L179.239,687.413 L176.412,697.805 Q175.747,700.216,172.172,700.216 L172.172,700.216 Q169.263,700.216,166.561,698.636 Q163.859,697.056,163.859,694.895 Z M187.968,655.156 L181.899,677.436 L194.037,677.436 L187.968,655.156 Z M223.800,681.094 L223.800,681.094 L223.800,659.063 Q223.800,648.921,229.328,644.182 Q234.857,639.443,243.752,639.443 L243.752,639.443 Q252.897,639.443,258.758,643.849 Q264.619,648.256,264.619,655.987 L264.619,655.987 Q264.619,659.562,263.123,660.851 Q261.627,662.139,258.135,662.139 L258.135,662.139 Q251.900,662.139,251.650,658.232 L251.650,658.232 Q251.401,650.750,244.251,650.750 L244.251,650.750 Q236.769,650.750,236.769,659.063 L236.769,659.063 L236.769,681.094 Q236.769,689.408,244.334,689.408 L244.334,689.408 Q246.662,689.408,248.200,688.660 Q249.738,687.911,250.403,686.373 Q251.068,684.835,251.276,683.838 Q251.484,682.840,251.650,681.094 L251.650,681.094 Q251.983,677.187,258.052,677.187 L258.052,677.187 Q261.627,677.187,263.123,678.476 Q264.619,679.764,264.619,683.339 L264.619,683.339 Q264.619,691.403,258.758,696.059 Q252.897,700.714,243.752,700.714 L243.752,700.714 Q234.857,700.714,229.328,695.976 Q223.800,691.237,223.800,681.094 Z M274.845,645.180 L274.845,645.180 Q274.845,642.852,275.843,641.148 Q276.840,639.443,278.753,639.443 L278.753,639.443 L314.667,639.443 Q316.579,639.443,317.577,641.148 Q318.575,642.852,318.575,645.180 L318.575,645.180 Q318.575,647.674,317.535,649.378 Q316.496,651.082,314.667,651.082 L314.667,651.082 L303.194,651.082 L303.194,696.225 Q303.194,698.137,301.282,699.176 Q299.370,700.216,296.710,700.216 Q294.050,700.216,292.137,699.176 Q290.225,698.137,290.225,696.225 L290.225,696.225 L290.225,651.082 L278.753,651.082 Q276.924,651.082,275.884,649.378 Q274.845,647.674,274.845,645.180 Z M329.299,680.263 L329.299,680.263 Q329.299,678.018,330.380,676.480 Q331.461,674.942,333.206,674.942 L333.206,674.942 L354.822,674.942 Q356.401,674.942,357.607,676.522 Q358.812,678.101,358.812,680.263 L358.812,680.263 Q358.812,682.508,357.607,684.004 Q356.401,685.501,354.822,685.501 L354.822,685.501 L333.206,685.501 Q331.461,685.501,330.380,684.046 Q329.299,682.591,329.299,680.263 Z M372.613,681.094 L372.613,681.094 L372.613,659.063 Q372.613,648.921,378.141,644.182 Q383.670,639.443,392.565,639.443 L392.565,639.443 Q401.710,639.443,407.571,643.849 Q413.433,648.256,413.433,655.987 L413.433,655.987 Q413.433,659.562,411.936,660.851 Q410.440,662.139,406.948,662.139 L406.948,662.139 Q400.713,662.139,400.463,658.232 L400.463,658.232 Q400.214,650.750,393.064,650.750 L393.064,650.750 Q385.582,650.750,385.582,659.063 L385.582,659.063 L385.582,681.094 Q385.582,689.408,393.147,689.408 L393.147,689.408 Q395.475,689.408,397.013,688.660 Q398.551,687.911,399.216,686.373 Q399.881,684.835,400.089,683.838 Q400.297,682.840,400.463,681.094 L400.463,681.094 Q400.796,677.187,406.865,677.187 L406.865,677.187 Q410.440,677.187,411.936,678.476 Q413.433,679.764,413.433,683.339 L413.433,683.339 Q413.433,691.403,407.571,696.059 Q401.710,700.714,392.565,700.714 L392.565,700.714 Q383.670,700.714,378.141,695.976 Q372.613,691.237,372.613,681.094 Z M426.817,681.094 L426.817,681.094 L426.817,659.063 Q426.817,648.921,432.388,644.182 Q437.958,639.443,447.186,639.443 L447.186,639.443 Q456.497,639.443,462.067,644.182 Q467.637,648.921,467.637,659.063 L467.637,659.063 L467.637,681.094 Q467.637,691.237,462.067,695.976 Q456.497,700.714,447.186,700.714 L447.186,700.714 Q437.958,700.714,432.388,695.976 Q426.817,691.237,426.817,681.094 Z M439.787,659.063 L439.787,681.094 Q439.787,689.408,447.186,689.408 L447.186,689.408 Q454.668,689.408,454.668,681.094 L454.668,681.094 L454.668,659.063 Q454.668,650.750,447.186,650.750 L447.186,650.750 Q439.787,650.750,439.787,659.063 L439.787,659.063 Z M483.433,696.308 L483.433,696.308 L483.433,643.351 Q483.433,641.771,485.013,640.607 Q486.592,639.443,489.086,639.443 L489.086,639.443 L503.801,639.443 Q513.112,639.443,518.683,644.182 Q524.253,648.921,524.253,659.063 L524.253,659.063 L524.253,680.596 Q524.253,690.738,518.683,695.477 Q513.112,700.216,503.801,700.216 L503.801,700.216 L489.086,700.216 Q486.592,700.216,485.013,699.052 Q483.433,697.888,483.433,696.308 Z M496.402,650.750 L496.402,688.909 L503.801,688.909 Q511.283,688.909,511.283,680.596 L511.283,680.596 L511.283,659.063 Q511.283,650.750,503.801,650.750 L503.801,650.750 L496.402,650.750 Z M539.965,696.225 L539.965,696.225 L539.965,643.434 Q539.965,641.522,541.628,640.482 Q543.291,639.443,545.619,639.443 L545.619,639.443 L575.215,639.443 Q577.127,639.443,578.125,641.106 Q579.122,642.769,579.122,645.013 L579.122,645.013 Q579.122,647.424,578.083,649.087 Q577.044,650.750,575.215,650.750 L575.215,650.750 L552.934,650.750 L552.934,664.800 L565.405,664.800 Q567.234,664.800,568.273,666.296 Q569.312,667.793,569.312,669.871 L569.312,669.871 Q569.312,671.783,568.315,673.280 Q567.317,674.776,565.405,674.776 L565.405,674.776 L552.934,674.776 L552.934,688.909 L575.215,688.909 Q577.044,688.909,578.083,690.572 Q579.122,692.235,579.122,694.645 L579.122,694.645 Q579.122,696.890,578.125,698.553 Q577.127,700.216,575.215,700.216 L575.215,700.216 L545.619,700.216 Q543.291,700.216,541.628,699.176 Q539.965,698.137,539.965,696.225 Z M590.346,680.263 L590.346,680.263 Q590.346,678.018,591.426,676.480 Q592.507,674.942,594.253,674.942 L594.253,674.942 L615.868,674.942 Q617.448,674.942,618.653,676.522 Q619.859,678.101,619.859,680.263 L619.859,680.263 Q619.859,682.508,618.653,684.004 Q617.448,685.501,615.868,685.501 L615.868,685.501 L594.253,685.501 Q592.507,685.501,591.426,684.046 Q590.346,682.591,590.346,680.263 Z M634.324,696.308 L634.324,696.308 L634.324,643.434 Q634.324,641.522,635.987,640.482 Q637.650,639.443,639.978,639.443 L639.978,639.443 L657.021,639.443 Q673.648,639.443,673.648,654.241 L673.648,654.241 Q673.648,664.218,666.581,667.294 L666.581,667.294 Q670.821,668.873,672.983,671.825 Q675.144,674.776,675.144,680.596 L675.144,680.596 L675.144,682.341 Q675.144,691.653,670.613,695.934 Q666.082,700.216,658.434,700.216 L658.434,700.216 L639.978,700.216 Q637.400,700.216,635.862,699.052 Q634.324,697.888,634.324,696.308 Z M647.211,672.282 L647.211,688.909 L655.524,688.909 Q662.175,688.909,662.175,681.261 L662.175,681.261 L662.175,679.930 Q662.175,672.282,655.524,672.282 L655.524,672.282 L647.211,672.282 Z M647.211,650.750 L647.211,662.306 L655.940,662.306 Q658.184,662.306,659.431,660.601 Q660.679,658.897,660.679,656.569 Q660.679,654.241,659.431,652.496 Q658.184,650.750,655.940,650.750 L655.940,650.750 L647.211,650.750 Z M689.360,696.225 L689.360,696.225 L689.360,643.351 Q689.360,641.439,691.273,640.441 Q693.185,639.443,695.845,639.443 Q698.505,639.443,700.417,640.441 Q702.330,641.439,702.330,643.351 L702.330,643.351 L702.330,688.909 L721.285,688.909 Q723.030,688.909,724.028,690.572 Q725.026,692.235,725.026,694.562 Q725.026,696.890,724.028,698.553 Q723.030,700.216,721.285,700.216 L721.285,700.216 L695.014,700.216 Q692.686,700.216,691.023,699.176 Q689.360,698.137,689.360,696.225 Z M737.080,681.094 L737.080,681.094 L737.080,659.063 Q737.080,648.921,742.650,644.182 Q748.221,639.443,757.449,639.443 L757.449,639.443 Q766.760,639.443,772.330,644.182 Q777.900,648.921,777.900,659.063 L777.900,659.063 L777.900,681.094 Q777.900,691.237,772.330,695.976 Q766.760,700.714,757.449,700.714 L757.449,700.714 Q748.221,700.714,742.650,695.976 Q737.080,691.237,737.080,681.094 Z M750.050,659.063 L750.050,681.094 Q750.050,689.408,757.449,689.408 L757.449,689.408 Q764.931,689.408,764.931,681.094 L764.931,681.094 L764.931,659.063 Q764.931,650.750,757.449,650.750 L757.449,650.750 Q750.050,650.750,750.050,659.063 L750.050,659.063 Z M793.031,681.094 L793.031,681.094 L793.031,659.063 Q793.031,648.921,798.559,644.182 Q804.088,639.443,812.983,639.443 L812.983,639.443 Q822.128,639.443,827.989,643.849 Q833.850,648.256,833.850,655.987 L833.850,655.987 Q833.850,659.562,832.354,660.851 Q830.858,662.139,827.366,662.139 L827.366,662.139 Q821.131,662.139,820.881,658.232 L820.881,658.232 Q820.632,650.750,813.482,650.750 L813.482,650.750 Q806.000,650.750,806.000,659.063 L806.000,659.063 L806.000,681.094 Q806.000,689.408,813.565,689.408 L813.565,689.408 Q815.893,689.408,817.431,688.660 Q818.969,687.911,819.634,686.373 Q820.299,684.835,820.507,683.838 Q820.715,682.840,820.881,681.094 L820.881,681.094 Q821.214,677.187,827.283,677.187 L827.283,677.187 Q830.858,677.187,832.354,678.476 Q833.850,679.764,833.850,683.339 L833.850,683.339 Q833.850,691.403,827.989,696.059 Q822.128,700.714,812.983,700.714 L812.983,700.714 Q804.088,700.714,798.559,695.976 Q793.031,691.237,793.031,681.094 Z M847.900,696.225 L847.900,696.225 L847.900,643.351 Q847.900,641.439,849.813,640.441 Q851.725,639.443,854.385,639.443 Q857.045,639.443,858.957,640.441 Q860.870,641.439,860.870,643.351 L860.870,643.351 L860.870,663.303 L876.416,641.272 Q877.663,639.443,879.825,639.443 L879.825,639.443 Q882.402,639.443,884.937,641.563 Q887.473,643.683,887.473,646.094 L887.473,646.094 Q887.473,647.424,886.642,648.588 L886.642,648.588 L873.007,665.714 L890.217,692.068 Q890.882,693.149,890.882,694.230 L890.882,694.230 Q890.882,696.641,888.388,698.678 Q885.893,700.714,883.067,700.714 L883.067,700.714 Q880.074,700.714,878.578,698.303 L878.578,698.303 L864.361,676.688 L860.870,681.177 L860.870,696.225 Q860.870,698.137,858.957,699.176 Q857.045,700.216,854.385,700.216 Q851.725,700.216,849.813,699.176 Q847.900,698.137,847.900,696.225 Z M899.528,690.239 L899.528,690.239 Q899.528,687.911,901.232,685.584 Q902.936,683.256,905.181,683.256 L905.181,683.256 Q906.428,683.256,907.966,684.212 Q909.504,685.168,910.793,686.332 Q912.081,687.496,914.409,688.452 Q916.737,689.408,919.314,689.408 L919.314,689.408 Q922.556,689.408,924.967,688.036 Q927.378,686.664,927.378,683.921 Q927.378,681.177,924.676,679.099 Q921.974,677.021,918.109,675.316 Q914.243,673.612,910.335,671.492 Q906.428,669.372,903.726,665.465 Q901.024,661.557,901.024,656.154 L901.024,656.154 Q901.024,647.507,907.259,643.226 Q913.495,638.944,922.307,638.944 L922.307,638.944 Q924.468,638.944,926.838,639.194 Q929.207,639.443,932.159,640.150 Q935.110,640.857,936.980,642.436 Q938.851,644.016,938.851,646.260 L938.851,646.260 Q938.851,648.422,937.479,650.750 Q936.107,653.078,933.697,653.078 L933.697,653.078 Q932.699,653.078,929.457,651.498 Q926.214,649.918,922.307,649.918 L922.307,649.918 Q918.150,649.918,916.072,651.373 Q913.993,652.828,913.993,654.907 L913.993,654.907 Q913.993,656.819,915.947,658.398 Q917.901,659.978,920.810,661.100 Q923.720,662.223,927.170,664.010 Q930.621,665.797,933.530,667.917 Q936.440,670.037,938.394,673.862 Q940.347,677.686,940.347,682.591 L940.347,682.591 Q940.347,691.320,934.611,696.183 Q928.875,701.047,919.563,701.047 L919.563,701.047 Q911.499,701.047,905.514,697.722 Q899.528,694.396,899.528,690.239 Z" id="def-f50fd3e8-2d2e-4de6-84eb-50d80ffb59a2"></path><mask id="mask-370851fb-edb7-440d-81d7-c38e36fda877" x="33.027" y="278.545" width="933.946" height="449.127" maskUnits="userSpaceOnUse" stroke-width="0"><rect x="53.442" y="298.960" width="893.116" height="408.298" fill="#000"></rect><use xlink:href="#def-5f165fcb-359c-45ab-8b14-e54b528315b7" fill="#fff" stroke="#fff"></use><use xlink:href="#def-f50fd3e8-2d2e-4de6-84eb-50d80ffb59a2" fill="#fff" stroke="#fff"></use></mask></defs>
<g mask="url(#mask-370851fb-edb7-440d-81d7-c38e36fda877)"><rect x="53.442" y="298.960" width="893.116" height="408.298" fill="#ff3c46"></rect></g>
</svg>